<svg width="441" height="284" viewBox="0 0 441 284" fill="none" xmlns="http://www.w3.org/2000/svg">
<g opacity="0.540017">
<path d="M249.081 57.5793L235.636 70.4855L217.689 59.1912L231.133 46.2851L249.081 57.5793Z" fill="#666666"/>
</g>
<g opacity="0.355324">
<path d="M320.535 43.5407L319.339 57.9056L303.195 60.5796L304.391 46.2147L320.535 43.5407Z" fill="#FFA63A"/>
</g>
<g opacity="0.322728">
<path d="M194.966 49.149L194.242 60.4996L181.546 62.8582L182.27 51.5067L194.966 49.149Z" fill="#3E80FF"/>
</g>
<g opacity="0.581984">
<path d="M306.673 80.9297L317.512 84.275L316.848 97.2081L306.01 93.864L306.673 80.9297Z" fill="#FF3399"/>
</g>
<g opacity="0.288157">
<path d="M103.781 98.8788L94.6185 105.58L84.691 97.2996L93.8538 90.5975L103.781 98.8788Z" fill="#FFA63A"/>
</g>
<g opacity="0.687758">
<path d="M-0.0266589 258.66L7.33537 267.312L-0.139798 277.872L-7.50182 269.22L-0.0266589 258.66Z" fill="#3E80FF"/>
</g>
<path d="M28.1288 163.586C26.9505 163.203 25.774 162.808 24.6753 162.274C21.6137 160.785 19.1358 158.127 17.8598 154.963C16.0425 150.46 16.5855 145.073 13.8913 141.035C11.5094 137.466 7.14546 135.818 2.96528 134.887C-1.21492 133.955 -5.60146 133.487 -9.34454 131.402C-14.0876 128.76 -17.0814 123.951 -20.1946 119.453" stroke="#FFA63A" stroke-opacity="0.961543" stroke-width="4.829" stroke-miterlimit="10"/>
<path d="M306.071 42.0942C303.575 44.801 302.24 48.568 303.258 52.0663C304.918 57.774 311.679 60.351 317.607 60.3592C319.497 60.3619 321.44 60.1758 323.134 59.3335C326.847 57.4872 328.425 53.0721 329.328 49.0155C331.757 38.0994 331.767 26.6487 329.359 15.728C328.524 11.9419 327.382 8.17223 325.361 4.86726C324.824 3.98951 324.232 3.1535 323.593 2.35291" stroke="#FFB61A" stroke-width="4.829" stroke-miterlimit="10"/>
<path d="M61.0872 163.546C61.0555 163.546 61.0238 163.546 60.9921 163.546C56.3839 163.519 51.3204 163.321 47.7203 166.205C43.4406 169.634 43.036 176.096 44.3908 181.42C45.1564 184.428 46.2316 188.025 44.1374 190.312C42.5917 192.002 40.0151 192.092 37.7291 192.111C29.6556 192.178 20.2255 193.687 16.3928 200.814C13.2443 206.667 14.5973 215.253 9.02161 218.854C4.03958 222.072 -2.93526 218.667 -8.36164 221.056C-13.3762 223.262 -14.8523 229.084 -17.1401 234.316" stroke="#FF3399" stroke-width="4.829" stroke-miterlimit="10"/>
<path d="M126.72 79.4038C127.278 78.1893 127.748 76.953 128.003 75.6777C128.821 71.5857 127.175 67.0962 123.91 64.5092C118.698 60.3828 109.842 60.6088 107.243 54.4799C104.887 48.9257 109.896 42.5517 108.409 36.7024C107.526 33.2295 104.533 30.7324 101.513 28.8172C95.5962 25.0656 88.2458 21.7624 86.4231 14.9846C86.1172 13.8472 85.9968 12.6835 85.9443 11.5081" stroke="#FF3399" stroke-width="4.829" stroke-miterlimit="10"/>
<path d="M189.324 101.745C188.28 101.093 187.269 100.391 186.297 99.644C177.835 93.1411 171.79 82.835 172.393 72.1603C172.997 61.4866 181.422 51.1913 192.053 50.3862C194.797 50.1783 197.673 50.6068 199.973 52.1235C202.273 53.6403 203.875 56.3807 203.55 59.122C203.202 62.0439 200.862 64.3295 198.378 65.8944C187.749 72.5924 173.515 70.0417 162.593 63.8366C153.338 58.5792 145.313 50.6612 141.382 40.7481C138.141 32.5769 137.842 23.2684 140.553 14.9065C141.503 11.9737 142.898 9.04365 145.335 7.16197C147.387 5.5762 149.991 4.88452 152.561 4.5523C153.151 4.47606 153.75 4.42069 154.354 4.38892" stroke="#8678DE" stroke-width="4.829" stroke-miterlimit="10"/>
<path d="M346.125 123.656C346.667 124.452 347.357 125.162 348.101 125.774C352.562 129.444 359.201 129.917 364.42 127.451C369.639 124.985 373.391 119.888 374.835 114.286C375.969 109.895 375.663 104.87 372.861 101.31C371.13 99.112 368.52 97.6288 365.75 97.2702C362.937 96.9053 359.329 98.6009 359.657 101.427C359.782 102.504 360.473 103.429 361.237 104.196C365.189 108.165 371.496 109.093 376.879 107.568C382.262 106.044 386.824 102.408 390.628 98.295C394.39 94.2285 397.676 89.3087 398.04 83.7726C398.495 76.8477 393.756 69.9636 387.192 67.7697C384.962 67.0244 382.161 67.0344 380.282 68.2026" stroke="#8678DE" stroke-width="4.829" stroke-miterlimit="10"/>
<path d="M357.113 237.729C358.84 237.653 360.614 237.846 362.318 238.115C365.804 238.664 369.369 239.477 372.817 238.727C376.266 237.978 379.576 235.078 379.396 231.543C379.316 229.979 378.576 228.487 378.628 226.921C378.734 223.666 382.151 221.506 385.344 220.911C388.537 220.318 391.92 220.654 394.952 219.487C398.492 218.123 401.125 214.637 401.473 210.849C401.502 210.539 401.518 210.223 401.525 209.904" stroke="#FF3399" stroke-width="4.829" stroke-miterlimit="10"/>
<path d="M222.405 145.06C223.686 144.561 224.882 143.878 225.938 142.966C229.05 140.281 230.226 135.143 227.907 131.902" stroke="#666666" stroke-width="4.829" stroke-miterlimit="10"/>
</svg>
